<svg width="200" height="240" viewBox="0 0 200 240" xmlns="http://www.w3.org/2000/svg">
  <!-- Background circle with cream color -->
  <circle cx="100" cy="100" r="95" fill="#F5E6D3" opacity="0.3"/>

  <!-- Sun rays -->
  <g stroke="#CC7722" stroke-width="3" stroke-linecap="round">
    <line x1="100" y1="15" x2="100" y2="35" />
    <line x1="125.36" y1="19.64" x2="118.48" y2="36.52" />
    <line x1="146.46" y1="32.32" x2="135.36" y2="46.46" />
    <line x1="160.36" y1="53.54" x2="143.48" y2="63.68" />
    <line x1="167.68" y1="78.93" x2="150.8" y2="81.07" />
    <line x1="167.68" y1="121.07" x2="150.8" y2="118.93" />
    <line x1="160.36" y1="146.46" x2="143.48" y2="136.32" />
    <line x1="146.46" y1="167.68" x2="135.36" y2="153.54" />
    <line x1="125.36" y1="180.36" x2="118.48" y2="163.48" />
    <line x1="100" y1="185" x2="100" y2="165" />
    <line x1="74.64" y1="180.36" x2="81.52" y2="163.48" />
    <line x1="53.54" y1="167.68" x2="64.64" y2="153.54" />
    <line x1="39.64" y1="146.46" x2="56.52" y2="136.32" />
    <line x1="32.32" y1="121.07" x2="49.2" y2="118.93" />
    <line x1="32.32" y1="78.93" x2="49.2" y2="81.07" />
    <line x1="39.64" y1="53.54" x2="56.52" y2="63.68" />
    <line x1="53.54" y1="32.32" x2="64.64" y2="46.46" />
    <line x1="74.64" y1="19.64" x2="81.52" y2="36.52" />
  </g>

  <!-- Central circle with gradient -->
  <defs>
    <linearGradient id="logoGradient" x1="0%" y1="0%" x2="100%" y2="100%">
      <stop offset="0%" style="stop-color:#CC7722;stop-opacity:1" />
      <stop offset="100%" style="stop-color:#8B4513;stop-opacity:1" />
    </linearGradient>
  </defs>
  <circle cx="100" cy="100" r="45" fill="url(#logoGradient)" />

  <!-- Letter R -->
  <text x="100" y="115" font-family="serif" font-size="40" font-weight="bold" fill="white" text-anchor="middle">R</text>

  <!-- RESORCERA text -->
  <text x="100" y="220" font-family="serif" font-size="24" font-weight="bold" fill="#8B4513" text-anchor="middle">RESORCERA</text>
</svg>